<?xml version="1.0" encoding="utf-8"?>

<!DOCTYPE svg PUBLIC "-//W3C//DTD SVG 1.1//EN" "http://www.w3.org/Graphics/SVG/1.1/DTD/svg11.dtd">
<!-- Uploaded to: SVG Repo, www.svgrepo.com, Generator: SVG Repo Mixer Tools -->
<svg height="800px" width="800px" version="1.1" id="_x32_" xmlns="http://www.w3.org/2000/svg" xmlns:xlink="http://www.w3.org/1999/xlink" 
	 viewBox="0 0 512 512"  xml:space="preserve">
<style type="text/css">
	.st0{fill:#000000;}
</style>
<g>
	<path class="st0" d="M183.969,400.474c4.462,0,8.074-3.612,8.074-8.073c0-4.462-3.612-8.074-8.074-8.074
		c-4.462,0-8.073,3.612-8.073,8.074C175.897,396.863,179.508,400.474,183.969,400.474z"/>
	<path class="st0" d="M463.05,428.363c-2.22-12.232-6.502-22.749-12.348-31.55c-5.904-8.88-13.22-15.915-21.149-21.696
		c-0.937-1.089-1.766-2.048-2.314-2.704c-10.199-12.232-4.916-27.06-39.314-30.448c-6.04-0.598-14.568-13.327-19.736-15.065
		c-17.206-5.788-29.424-0.281-35.954,8.772c-0.923-0.576-1.903-1.139-2.753-1.73c-3.172-2.191-5.702-4.505-7.194-6.488
		c-1.521-2.018-1.91-3.43-1.91-4.411c0-7.965,0-17.92,0-31.031c10.596-11.793,25.819-30.066,32.076-59.036
		c2.184-0.98,4.347-2.098,6.43-3.546c5.182-3.576,9.58-8.773,13.306-15.837c3.748-7.093,7.071-16.16,10.618-28.566
		c2.688-9.428,3.784-16.924,3.792-23.088c0.035-8.794-2.394-15.13-5.817-19.102c-0.635-0.75-1.284-1.305-1.932-1.859
		c0-4.766,0-12.766,0-21.142c2.09,2.458,4.807,4.743,8.029,6.61c8.6,4.96,17.999,5.334,23.088,1.434
		c0.829-6.372-4.174-14.323-12.773-19.282c-6.43-3.72-13.314-4.858-18.511-3.561c-0.05-1.059-0.18-2.27-0.266-3.409
		c5.089,3.186,12.672,4.592,20.81,3.265c11.31-1.831,20.003-8.318,21.711-15.461c-2.934-4.664-9.479-7.728-17.364-8.175
		c0.418-0.504,0.865-0.959,1.262-1.492c8.412-11.158,10.545-24.242,5.954-32.04c-8.765-2.256-20.745,3.394-29.157,14.553
		c-3.784,5.024-6.228,10.424-7.424,15.562c-0.923-3.323-2.048-6.704-3.359-10.142c3.482-4.872,5.197-10.092,4.512-14.633
		c-3.337-2.45-8.03-3.496-13.256-3.107c-1.074-1.752-2.062-3.51-3.273-5.24c-8.584-12.189-20.86-23.528-37.792-31.651
		C304.109,4.923,282.643-0.006,255.67,0c-26.973-0.006-48.439,4.923-65.372,13.069c-23.398,11.208-37.678,28.53-46.032,45.75
		c-0.454-1.045-0.886-2.098-1.427-3.136c-6.465-12.391-17.364-19.931-26.382-19.131c-5.795,6.949-5.839,20.19,0.635,32.582
		c4.519,8.649,11.194,14.855,17.883,17.588c-0.115,0.584-0.238,1.168-0.346,1.737c-5.816-0.908-13.407,2.126-19.433,8.39
		c-6.876,7.136-9.508,16.169-6.934,22.05c5.975,2.343,14.899-0.613,21.776-7.749c0.916-0.952,1.744-1.939,2.508-2.948
		c-0.022,0.951-0.058,1.925-0.058,2.79c0,11.18,0,23.549,0,29.986c-0.649,0.554-1.298,1.109-1.932,1.859
		c-3.424,3.972-5.853,10.308-5.817,19.102c0.007,6.17,1.103,13.66,3.792,23.088c4.742,16.521,9.024,27.189,14.568,35.018
		c2.768,3.884,5.925,7.006,9.356,9.385c2.083,1.448,4.246,2.566,6.43,3.546c6.256,28.97,21.48,47.243,32.076,59.036
		c0,13.111,0,23.066,0,31.031c0,0.98-0.39,2.393-1.91,4.411c-1.485,1.997-4.087,4.275-7.244,6.481
		c-1.499-3.734-2.955-7.388-4.296-10.733c-7.381-18.453-20.298,5.536-25.834,11.072c-16.608-3.69-38.751,9.227-38.751,16.608
		c0,1.376,1.478,3.683,3.878,6.523c-13.89,4.858-28.53,11.642-41.043,22.374c-8.42,7.23-15.815,16.312-21.012,27.6
		c-5.204,11.281-8.189,24.688-8.182,40.374c0,3.64,0.159,7.403,0.49,11.295c0.238,2.732,1.275,4.945,2.494,6.776
		c2.321,3.409,5.399,5.94,9.255,8.542c6.754,4.469,16.11,8.838,28.09,13.127C122.751,500.28,182.11,511.985,255.67,512
		c59.764,0,110.206-7.756,146.212-17.502c18.013-4.887,32.393-10.229,42.787-15.57c5.205-2.688,9.414-5.348,12.752-8.26
		c1.672-1.471,3.136-3.013,4.368-4.844c1.21-1.831,2.256-4.044,2.494-6.776c0.201-2.386,0.223-4.627,0.302-6.92
		c0.353-2.169,0.649-4.476,0.793-7.135C465.674,439.608,464.758,433.992,463.05,428.363z M356.931,403.458
		c1.874-0.785,4.037,0.101,4.823,1.983c0.785,1.874-0.101,4.036-1.982,4.822c-21.899,9.154-44.799,12.254-65.869,12.254
		c-41.13-0.014-75.276-11.749-81.993-14.2c1.218-2.134,2.177-4.397,2.89-6.797c0.036,0.015,0.043,0.015,0.079,0.029
		c1.067,0.382,2.653,0.937,4.693,1.6c4.087,1.326,10.027,3.1,17.35,4.88c14.654,3.561,34.874,7.107,56.981,7.107
		C314.251,415.136,336.186,412.13,356.931,403.458z M351.006,82.008c-1.118,2.169-2.393,4.31-3.922,6.292
		c-1.866,2.444-3.993,4.613-6.148,6.51c-1.369-4.123-3.719-8.333-7.006-12.24C338.68,84.185,344.735,84.055,351.006,82.008z
		 M179.234,39.4c0.274,1.175,0.612,2.429,1.045,3.734c0.598,1.773,1.464,3.576,2.509,5.312c-3.323,1.24-6.682,3.158-9.869,5.694
		c-1.484-0.562-2.933-1.204-4.065-1.932c-0.382-0.245-0.7-0.49-0.995-0.728C171.11,47.25,174.801,43.163,179.234,39.4z
		 M191.142,347.27c4.102-2.869,7.857-6.083,10.841-9.998c2.949-3.863,5.212-8.7,5.212-14.229c0-8.614,0-19.376,0-34.138v-3.114
		l-2.083-2.321c-11.072-12.333-26.065-28.703-31.262-57.795l-0.821-4.65l-4.441-1.586c-2.826-1.009-4.981-2.04-6.862-3.345
		c-2.774-1.96-5.291-4.634-8.231-10.113c-2.905-5.45-5.983-13.595-9.349-25.409c-2.386-8.354-3.172-14.438-3.164-18.633
		c0.036-6.084,1.478-7.994,1.924-8.556l0.181-0.18l2.032-0.425c0.8,0.714,1.586,1.492,2.35,2.408
		c3.712,4.375,6.74,10.704,8.722,15.879c1.002,2.588,1.752,4.887,2.249,6.531c0.252,0.822,0.433,1.478,0.555,1.924l0.174,0.649
		c0.497,1.975,2.501,3.179,4.476,2.689c1.975-0.497,3.179-2.501,2.689-4.476c-0.044-0.137-1.918-7.684-5.781-15.902
		c-1.939-4.108-4.362-8.398-7.432-12.052c-1.319-1.557-2.797-2.977-4.397-4.231v-0.764c0,0,0-9.674,0-21.07
		c3.734,3.972,9.046,7.504,16.586,10.372c1.903,0.728,4.037-0.23,4.757-2.133c0.728-1.903-0.223-4.037-2.133-4.757
		c-7.915-3.02-12.543-6.546-15.188-9.969c-2.631-3.431-3.474-6.833-3.496-10.351c0-1.124,0.094-2.249,0.26-3.366
		c0.108-0.735-0.065-1.428-0.354-2.054c0.26-2.978,0.62-6.135,1.225-9.573c0.721,0.973,1.428,1.96,2.228,2.854
		c4.7,5.233,10.567,9.248,16.067,11.62c1.875,0.8,4.044-0.065,4.852-1.939c0.8-1.874-0.065-4.044-1.939-4.851
		c-4.448-1.889-9.616-5.421-13.48-9.753c-2.393-2.674-4.16-5.608-5.241-8.607c2.249-7.994,5.688-16.362,10.755-24.342
		c1.082,0.822,2.242,1.535,3.467,2.17c0.029,0.014,0.065,0.022,0.094,0.043c-7.72,8.982-10.582,19.722-7.446,26.908
		c5.63,2.206,13.264,0.757,20.45-3.705c1.082,4.599,3.222,9.407,6.545,13.898c7.569,10.279,18.453,15.548,26.462,13.558
		c4.246-7.071,2.436-19.022-5.147-29.28c-4.108-5.579-9.198-9.608-14.279-11.88c4.62-7.619,5.932-15.706,3.417-21.472
		c-1.932-0.75-4.094-1.074-6.394-1.009c-0.324-0.267-0.641-0.498-0.994-0.93c-1.493-1.816-2.703-5.132-3.338-7.915
		c-0.316-1.34-0.526-2.537-0.649-3.424c3.525-2.422,7.281-4.728,11.526-6.775c0.223-0.108,0.468-0.202,0.692-0.302
		c0.512,2.025,1.326,4.52,2.696,7.236c3.194,6.394,9.566,13.876,21.135,17.733c1.932,0.649,4.022-0.39,4.671-2.322
		c0.649-1.932-0.389-4.022-2.321-4.671c-9.609-3.265-14.308-9.01-16.896-14.063c-1.276-2.523-1.968-4.872-2.336-6.552
		c-0.029-0.115-0.021-0.158-0.05-0.266c7.338-2.797,15.634-5.031,25.142-6.459c0.526,2.018,1.399,4.52,2.934,7.28
		c3.59,6.466,10.806,14.049,24.292,18.986l2.552-6.92c-12.024-4.455-17.588-10.683-20.4-15.671
		c-0.973-1.744-1.528-3.258-1.932-4.591c5.673-0.57,11.706-0.886,18.158-0.886c1.882,0,3.669,0.079,5.485,0.129
		c0.267,2.848,1.103,6.675,3.46,10.69c3.042,5.197,8.664,10.473,18.05,13.89c1.918,0.699,4.037-0.288,4.736-2.198
		c0.699-1.918-0.281-4.037-2.198-4.736c-8.03-2.963-12.017-7-14.222-10.704c-1.428-2.408-2.04-4.707-2.328-6.581
		c16.672,1.153,30.274,4.491,41.374,9.219c0.007,0.368,0.036,0.706,0.036,1.089c0.044,4.512-0.994,9.435-3.532,11.85
		c-1.442,1.442-1.442,3.777,0,5.219c1.442,1.442,3.777,1.442,5.218,0c4.138-4.239,5.277-9.752,5.565-14.604
		c10.25,5.478,18.172,12.197,24.299,19.563c-0.158,4.736-2.552,9.544-6.307,13.725c-3.856,4.332-9.024,7.864-13.472,9.753
		c-0.072,0.029-0.108,0.086-0.173,0.122c-3.438-1.73-6.898-2.768-10.113-2.97c4.851-7.756,6.3-16.053,3.734-21.934
		c-7.8-3.042-19.441,0.8-28.408,10.12c-7.9,8.202-11.482,18.308-9.933,25.848c-0.498-0.779-0.959-1.571-1.52-2.335
		c-6.322-8.636-14.936-13.739-22.338-14.142c3.266-4.743,4.843-9.774,4.181-14.179c-6.654-4.887-18.713-4.202-29.633,2.386
		c-10.928,6.581-17.185,16.918-15.96,25.085c6.653,4.88,18.713,4.188,29.618-2.393c1.896-1.139,3.597-2.422,5.197-3.763
		c-0.742,6.819,1.68,15.289,7.23,22.872c7.641,10.452,18.655,15.836,26.786,13.868c3.59-5.94,2.919-15.266-1.737-24.241
		c7.064,2.213,16.831-0.8,25.034-8.095c0.404,6.465,3.611,13.897,9.464,20.298c8.592,9.435,19.967,13.544,27.723,10.733
		c0.923-1.982,1.362-4.274,1.384-6.732c3.741-2.718,7.395-6.184,10.567-10.294c2.314-3.027,4.325-6.379,5.867-9.918
		c2.509,9.277,3.496,17.927,3.742,24.458c-0.75,2.876-1.954,5.946-3.813,8.909c-3.38,5.385-8.65,10.394-16.636,13.451
		c-1.91,0.72-2.862,2.854-2.141,4.757c0.728,1.91,2.862,2.862,4.764,2.133c7.958-3.02,13.768-7.864,17.898-13.198
		c0,8.088,0,15.404,0,19.231c-4.584,1.276-8.26,4.289-11.244,7.814c-4.592,5.478-7.792,12.391-9.962,17.984
		c-2.155,5.594-3.222,9.869-3.25,9.969c-0.49,1.975,0.706,3.979,2.688,4.476c1.975,0.49,3.979-0.706,4.477-2.689
		c0,0,0.094-0.389,0.317-1.16c0.757-2.71,2.934-9.695,6.372-16.182c1.709-3.237,3.734-6.344,5.94-8.693
		c1.521-1.629,3.092-2.703,4.664-3.503v1.384l5.637,1.189c0.144,0.13,0.433,0.389,0.894,1.355c0.534,1.168,1.211,3.417,1.211,7.381
		c0.007,4.196-0.779,10.287-3.164,18.633c-4.476,15.772-8.491,24.94-12.175,30.03c-1.845,2.573-3.532,4.18-5.406,5.492
		c-1.882,1.305-4.037,2.336-6.862,3.345l-4.448,1.586l-0.815,4.65c-5.197,29.092-20.19,45.462-31.262,57.795l-2.083,2.321v3.114
		c0,14.762,0,25.524,0,34.138c0,5.528,2.263,10.366,5.211,14.229c3.864,5.031,9.01,8.953,14.561,12.369
		c-24.508,29.445-107.655,32.61-107.655,32.61c-0.172,1.354-0.404,2.623-0.634,3.892c-2.335-11.908-11.266-21.344-22.8-24.652
		c-1.355-3.382-3.042-7.598-4.887-12.211C189.008,348.611,190.118,347.984,191.142,347.27z M329.77,76.703
		c-0.05,0.483-0.079,0.966-0.086,1.442c-0.316-0.281-0.649-0.526-0.965-0.8C329.071,77.15,329.417,76.912,329.77,76.703z
		 M183.969,367.49c13.754,0.021,24.883,11.158,24.912,24.912c-0.029,13.753-11.158,24.882-24.912,24.912
		c-13.753-0.03-24.89-11.159-24.912-24.912C159.08,378.648,170.216,367.511,183.969,367.49z M86.63,416.563
		c-4.181,14.661-6.033,31.716-6.639,50.717c-2.126-0.944-4.123-1.882-5.889-2.79c-4.418-2.271-7.676-4.433-9.478-6.027
		c-0.771-0.67-1.204-1.182-1.42-1.477c-0.252-3.2-0.396-6.293-0.396-9.234c0.029-18.223,4.483-31.536,11.367-41.973
		c8.564-12.968,21.452-21.712,35.472-28.048C98.452,387.492,91.142,400.72,86.63,416.563z M112.954,478.618
		c-9.875-2.696-18.496-5.536-25.726-8.34c0.684-27.686,4.08-50.608,12.527-67.541c4.801-9.637,11.152-17.372,19.643-23.283
		c3.798-2.638,8.116-4.858,12.866-6.746c1.816,1.643,3.648,3.272,5.45,4.844c-3.215,2.199-6.076,4.931-8.492,8.21
		c-6.811,9.22-10.747,22.166-13.147,38.312C113.827,439.413,113.034,457.787,112.954,478.618z M373.106,484.608
		c-29.309,5.997-65.724,10.38-107.02,11.029v-19.274h-7.381v19.368c-1.024,0-2.004,0.036-3.034,0.036
		c-54.79,0-101.355-6.747-135.356-15.282c0.043-28.754,1.47-52.533,5.875-69.638c2.227-8.7,5.204-15.642,8.96-20.688
		c2.472-3.301,5.255-5.745,8.44-7.547c3.344,2.84,6.264,5.276,8.369,7.006c-0.079,0.93-0.281,1.83-0.281,2.783
		c0,17.833,14.46,32.293,32.293,32.293c4.274,0,8.34-0.872,12.074-2.386c65.479,45.16,136.185,59.944,181.33,61.371
		C375.939,483.989,374.577,484.306,373.106,484.608z"/>
</g>
</svg>