<?xml version="1.0" encoding="iso-8859-1"?>
<!-- Uploaded to: SVG Repo, www.svgrepo.com, Generator: SVG Repo Mixer Tools -->
<svg fill="#000000" height="800px" width="800px" version="1.1" id="Layer_1" xmlns="http://www.w3.org/2000/svg" xmlns:xlink="http://www.w3.org/1999/xlink" 
	 viewBox="0 0 512.001 512.001" xml:space="preserve">
<g>
	<g>
		<path d="M507.701,231.639l-51.2-76.809c-4.745-7.125-12.74-11.401-21.299-11.401h-102.4c-14.14,0-25.6,11.46-25.6,25.6v179.2
			H203.504c-1.946-9.54-6.187-18.176-11.861-25.668l15.036,0.068c9.182,0.043,17.69-4.847,22.281-12.8l51.2-88.678
			c4.591-7.953,4.574-17.766-0.06-25.702l-26.001-44.57c-2.244-3.849-5.453-7.04-9.31-9.276l-88.678-51.2
			c-4.378-2.526-9.404-3.703-14.447-3.379l-92.109,5.948c-8.542,0.555-16.247,5.333-20.523,12.749l-25.6,44.339
			c-4.284,7.415-4.574,16.469-0.777,24.149l40.909,82.739c2.244,4.531,5.769,8.294,10.146,10.829l60.86,35.132
			c-18.432,8.363-32.333,25.011-36.471,45.321H38.401c-7.074,0-12.8,5.726-12.8,12.8c0,7.074,5.726,12.8,12.8,12.8h39.697
			c5.948,29.175,31.795,51.2,62.703,51.2c30.908,0,56.755-22.025,62.703-51.2h129.297h1.297c5.948,29.175,31.795,51.2,62.703,51.2
			s56.755-22.025,62.703-51.2h26.897c14.14,0,25.6-11.46,25.6-25.6V245.838C512.001,240.778,510.508,235.837,507.701,231.639z
			 M25.601,162.86l25.6-44.339l76.757-4.949L59.692,231.809L25.601,162.86z M77.595,251.991l76.8-133.018l66.509,38.4l-76.8,133.018
			L77.595,251.991z M140.801,399.43c-21.205,0-38.4-17.195-38.4-38.4c0-21.205,17.195-38.4,38.4-38.4
			c21.205,0,38.4,17.195,38.4,38.4C179.201,382.235,162.007,399.43,140.801,399.43z M169.934,296.859l69.487-120.354l18.569,31.838
			l-51.2,88.678L169.934,296.859z M332.801,169.03h102.4l42.667,64.009l-145.067-0.009V169.03z M396.802,399.43
			c-21.205,0-38.4-17.195-38.4-38.4c0-21.205,17.195-38.4,38.4-38.4c21.205,0,38.4,17.195,38.4,38.4
			C435.201,382.235,418.007,399.43,396.802,399.43z M486.401,284.23h-25.6v25.6h25.6v38.4h-26.897
			c-5.948-29.175-31.795-51.2-62.703-51.2c-30.908,0-56.755,22.025-62.703,51.2h-1.297v-89.6l153.6,0.008V284.23z"/>
	</g>
</g>
</svg>