<?xml version="1.0" encoding="iso-8859-1"?>
<!-- Uploaded to: SVG Repo, www.svgrepo.com, Generator: SVG Repo Mixer Tools -->
<!DOCTYPE svg PUBLIC "-//W3C//DTD SVG 1.1//EN" "http://www.w3.org/Graphics/SVG/1.1/DTD/svg11.dtd">
<svg fill="#000000" height="800px" width="800px" version="1.1" id="Capa_1" xmlns="http://www.w3.org/2000/svg" xmlns:xlink="http://www.w3.org/1999/xlink" 
	 viewBox="0 0 56.087 56.087" xml:space="preserve">
<path d="M54.917,5.396c-1.558-1.558-4.095-1.56-5.656,0L29.173,25.484l-3.221-3.221c-0.756-0.758-1.99-0.758-2.75-0.005L0,45.3
	l0.71,0.71c3.899,3.9,9.022,5.85,14.145,5.85c5.119,0,10.238-1.948,14.134-5.844l9.044-8.896c0.373-0.367,0.58-0.857,0.582-1.381
	s-0.2-1.016-0.57-1.385l-3.213-3.213l20.086-20.087C56.477,9.494,56.477,6.956,54.917,5.396z M40.9,16.585l4.243,1.414l-0.54,0.541
	l-4.243-1.414L40.9,16.585z M36.593,35.731l-9.013,8.864c-6.78,6.78-17.669,7.009-24.729,0.688l21.687-21.607l3.221,3.221
	l-1.295,1.295c-0.412,0.412-0.64,0.961-0.64,1.544s0.228,1.132,0.64,1.544l2.569,2.569c0.412,0.412,0.961,0.64,1.544,0.64
	s1.132-0.228,1.544-0.64l1.295-1.295L36.593,35.731z M29.173,28.312l2.829,2.829l-1.295,1.295c-0.072,0.072-0.188,0.072-0.26,0
	l-2.569-2.569c-0.071-0.071-0.071-0.188,0-0.26L29.173,28.312z M30.587,26.898l8.192-8.192l4.243,1.414l-9.606,9.607L30.587,26.898z
	 M53.503,9.64l-6.779,6.779l-4.243-1.414l8.194-8.194c0.375-0.375,0.878-0.581,1.414-0.581c0.537,0,1.039,0.206,1.414,0.582
	c0.376,0.375,0.582,0.877,0.582,1.414C54.085,8.762,53.878,9.264,53.503,9.64z"/>
</svg>