<?xml version="1.0" encoding="iso-8859-1"?>
<!-- Uploaded to: SVG Repo, www.svgrepo.com, Generator: SVG Repo Mixer Tools -->
<svg fill="#000000" height="800px" width="800px" version="1.1" id="Layer_1" xmlns="http://www.w3.org/2000/svg" xmlns:xlink="http://www.w3.org/1999/xlink" 
	 viewBox="0 0 512 512" xml:space="preserve">
<g>
	<g>
		<g>
			<path d="M298.667,187.733H281.6c-4.719,0-8.533,3.823-8.533,8.533s3.814,8.533,8.533,8.533h17.067
				c4.719,0,8.533-3.823,8.533-8.533S303.386,187.733,298.667,187.733z"/>
			<path d="M119.467,375.467H307.2c9.404,0,17.067-7.654,17.067-17.067v-85.333c0-9.412-7.663-17.067-17.067-17.067H119.467
				c-9.412,0-17.067,7.654-17.067,17.067V358.4C102.4,367.812,110.054,375.467,119.467,375.467z M119.467,273.067H307.2
				l0.009,85.333H119.467V273.067z"/>
			<path d="M401.067,153.6h-34.133c-4.719,0-8.533,3.823-8.533,8.533c0,4.71,3.814,8.533,8.533,8.533h34.133
				c4.719,0,8.533-3.823,8.533-8.533C409.6,157.423,405.786,153.6,401.067,153.6z"/>
			<path d="M273.067,34.133h8.533c4.719,0,8.533-3.823,8.533-8.533c0-4.71-3.814-8.533-8.533-8.533h-8.533
				c-4.719,0-8.533,3.823-8.533,8.533C264.533,30.311,268.348,34.133,273.067,34.133z"/>
			<path d="M443.733,221.867v-85.333c0-9.412-7.663-17.067-17.067-17.067H238.933c-9.412,0-17.067,7.654-17.067,17.067v85.333
				c0,9.412,7.654,17.067,17.067,17.067h187.733C436.07,238.933,443.733,231.279,443.733,221.867z M238.933,136.533h187.733
				l0.009,85.333H238.933V136.533z"/>
			<path d="M85.333,204.8c4.719,0,8.533-3.823,8.533-8.533s-3.814-8.533-8.533-8.533H76.8c-4.719,0-8.533,3.823-8.533,8.533
				s3.814,8.533,8.533,8.533H85.333z"/>
			<path d="M281.6,307.2h-34.133c-4.719,0-8.533,3.823-8.533,8.533s3.814,8.533,8.533,8.533H281.6c4.719,0,8.533-3.823,8.533-8.533
				S286.319,307.2,281.6,307.2z"/>
			<path d="M17.067,230.4c0,4.71,3.814,8.533,8.533,8.533h162.133c9.404,0,17.067-7.654,17.067-17.067v-85.333
				c0-9.412-7.663-17.067-17.067-17.067H42.667c-4.719,0-8.533,3.823-8.533,8.533c0,4.71,3.814,8.533,8.533,8.533h145.067v85.333
				H25.6C20.881,221.867,17.067,225.69,17.067,230.4z"/>
			<path d="M358.4,102.4h110.933c4.719,0,8.533-3.823,8.533-8.533c0-4.71-3.814-8.533-8.533-8.533H358.4l-0.017-68.267l93.867,0.179
				h0.009c4.719,0,8.533-3.814,8.542-8.516c0.008-4.719-3.806-8.542-8.516-8.55L358.4,0c-9.404,0-17.067,7.654-17.067,17.067v68.267
				C341.333,94.746,348.996,102.4,358.4,102.4z"/>
			<path d="M477.688,136.533l8.533,0.179c4.497,0.026,8.61-3.652,8.713-8.363c0.094-4.71-3.652-8.61-8.354-8.704l-8.713-0.179
				c-9.412,0-17.067,7.654-17.067,17.067v85.333c0,9.412,7.654,17.067,17.067,17.067h25.6c4.719,0,8.533-3.823,8.533-8.533
				s-3.814-8.533-8.533-8.533h-25.6L477.688,136.533z"/>
			<path d="M443.733,59.733c0,4.71,3.814,8.533,8.533,8.533H486.4c4.719,0,8.533-3.823,8.533-8.533S491.119,51.2,486.4,51.2h-34.133
				C447.548,51.2,443.733,55.023,443.733,59.733z"/>
			<path d="M170.667,324.267h-8.533c-4.719,0-8.533,3.823-8.533,8.533c0,4.71,3.814,8.533,8.533,8.533h8.533
				c4.719,0,8.533-3.823,8.533-8.533C179.2,328.09,175.386,324.267,170.667,324.267z"/>
			<path d="M179.2,68.267h17.067c4.719,0,8.533-3.823,8.533-8.533s-3.814-8.533-8.533-8.533H179.2c-4.719,0-8.533,3.823-8.533,8.533
				S174.481,68.267,179.2,68.267z"/>
			<path d="M145.067,170.667c4.719,0,8.533-3.823,8.533-8.533c0-4.71-3.814-8.533-8.533-8.533H128c-4.719,0-8.533,3.823-8.533,8.533
				c0,4.71,3.814,8.533,8.533,8.533H145.067z"/>
			<path d="M0,366.933c0,4.71,3.814,8.533,8.533,8.533h59.733c9.404,0,17.067-7.654,17.067-17.067v-85.333
				c0-9.412-7.663-17.067-17.067-17.067H8.533C3.814,256,0,259.823,0,264.533c0,4.71,3.814,8.533,8.533,8.533h59.733V358.4H8.533
				C3.814,358.4,0,362.223,0,366.933z"/>
			<path d="M503.526,392.713l-25.66-0.179c-9.412,0-17.067,7.654-17.067,17.067v85.333c0,9.412,7.654,17.067,17.067,17.067
				c4.719,0,8.533-3.823,8.533-8.533s-3.814-8.533-8.533-8.533l-0.06-85.333l25.6,0.179h0.06c4.685,0,8.499-3.789,8.533-8.482
				C512.034,396.587,508.245,392.738,503.526,392.713z"/>
			<path d="M366.933,460.8H358.4c-4.719,0-8.533,3.823-8.533,8.533s3.814,8.533,8.533,8.533h8.533c4.719,0,8.533-3.823,8.533-8.533
				S371.652,460.8,366.933,460.8z"/>
			<path d="M426.667,392.533H238.933c-9.412,0-17.067,7.654-17.067,17.067v85.333c0,9.412,7.654,17.067,17.067,17.067h187.733
				c9.404,0,17.067-7.654,17.067-17.067V409.6C443.733,400.188,436.07,392.533,426.667,392.533z M238.933,494.933V409.6h187.733
				l0.009,85.333H238.933z"/>
			<path d="M332.8,426.667h-51.2c-4.719,0-8.533,3.823-8.533,8.533s3.814,8.533,8.533,8.533h51.2c4.719,0,8.533-3.823,8.533-8.533
				S337.519,426.667,332.8,426.667z"/>
			<path d="M469.333,290.133c-4.719,0-8.533,3.823-8.533,8.533s3.814,8.533,8.533,8.533h34.133c4.719,0,8.533-3.823,8.533-8.533
				s-3.814-8.533-8.533-8.533H469.333z"/>
			<path d="M503.475,256.179L358.4,256c-9.404,0-17.067,7.654-17.067,17.067V358.4c0,9.412,7.663,17.067,17.067,17.067h145.067
				c4.719,0,8.533-3.823,8.533-8.533s-3.814-8.533-8.533-8.533H358.4l-0.009-85.333l145.067,0.179h0.008
				c4.71,0,8.525-3.814,8.533-8.525C512.009,260.002,508.194,256.179,503.475,256.179z"/>
			<path d="M384,324.267c-4.719,0-8.533,3.823-8.533,8.533c0,4.71,3.814,8.533,8.533,8.533h17.067c4.719,0,8.533-3.823,8.533-8.533
				c0-4.71-3.814-8.533-8.533-8.533H384z"/>
			<path d="M136.533,477.867c4.719,0,8.533-3.823,8.533-8.533s-3.814-8.533-8.533-8.533H128c-4.719,0-8.533,3.823-8.533,8.533
				s3.814,8.533,8.533,8.533H136.533z"/>
			<path d="M25.6,102.4h42.667c9.404,0,17.067-7.654,17.067-17.067V42.667c0-4.71-3.814-8.533-8.533-8.533s-8.533,3.823-8.533,8.533
				v42.667H25.6c-4.719,0-8.533,3.823-8.533,8.533C17.067,98.577,20.881,102.4,25.6,102.4z"/>
			<path d="M8.533,187.733h34.133c4.719,0,8.533-3.823,8.533-8.533s-3.814-8.533-8.533-8.533H8.533C3.814,170.667,0,174.49,0,179.2
				S3.814,187.733,8.533,187.733z"/>
			<path d="M119.467,102.4H307.2c9.404,0,17.067-7.654,17.067-17.067v-76.8c0-4.71-3.814-8.533-8.533-8.533S307.2,3.823,307.2,8.533
				v76.8l-187.733,0.026l0.171-59.733c0.017-4.71-3.789-8.542-8.508-8.559h-0.008c-4.71,0-8.525,3.806-8.542,8.508L102.4,85.333
				C102.4,94.746,110.054,102.4,119.467,102.4z"/>
			<path d="M25.6,68.267h8.533c4.719,0,8.533-3.823,8.533-8.533S38.852,51.2,34.133,51.2H25.6c-4.719,0-8.533,3.823-8.533,8.533
				S20.881,68.267,25.6,68.267z"/>
			<path d="M187.733,392.533H8.533c-4.719,0-8.533,3.823-8.533,8.533s3.814,8.533,8.533,8.533h179.2v85.333H8.533
				c-4.719,0-8.533,3.823-8.533,8.533S3.814,512,8.533,512h179.2c9.404,0,17.067-7.654,17.067-17.067V409.6
				C204.8,400.188,197.137,392.533,187.733,392.533z"/>
			<path d="M8.533,460.8H25.6c4.719,0,8.533-3.823,8.533-8.533c0-4.71-3.814-8.533-8.533-8.533H8.533
				c-4.719,0-8.533,3.823-8.533,8.533C0,456.977,3.814,460.8,8.533,460.8z"/>
			<path d="M42.667,307.2c4.719,0,8.533-3.823,8.533-8.533s-3.814-8.533-8.533-8.533H25.6c-4.719,0-8.533,3.823-8.533,8.533
				s3.814,8.533,8.533,8.533H42.667z"/>
			<path d="M102.4,443.733c4.719,0,8.533-3.823,8.533-8.533s-3.814-8.533-8.533-8.533h-8.533c-4.719,0-8.533,3.823-8.533,8.533
				s3.814,8.533,8.533,8.533H102.4z"/>
		</g>
	</g>
</g>
</svg>