<?xml version="1.0" encoding="utf-8"?><!-- Uploaded to: SVG Repo, www.svgrepo.com, Generator: SVG Repo Mixer Tools -->
<svg version="1.1" id="Uploaded to svgrepo.com" xmlns="http://www.w3.org/2000/svg" xmlns:xlink="http://www.w3.org/1999/xlink" 
	 width="800px" height="800px" viewBox="0 0 32 32" xml:space="preserve">
<style type="text/css">
	.feather_een{fill:#111918;}
	.st0{fill:#0B1719;}
</style>
<path class="feather_een" d="M21.001,10c2.089,0,3.693-1.455,4.475-2.338c0.335-0.378,0.335-0.945,0-1.323
	C24.694,5.455,23.09,4,21.001,4c-1.846,0-3.31,1.134-4.166,2.008l-0.342-2.049c-0.093-0.557-0.894-0.557-0.986,0l-0.341,2.048
	C14.31,5.134,12.845,4,11,4C8.911,4,7.307,5.455,6.525,6.338c-0.335,0.378-0.335,0.945,0,1.323C7.307,8.545,8.911,10,11,10
	c1.589,0,2.893-0.841,3.772-1.633L14.167,12H8c-0.552,0-1,0.448-1,1v3c0,0.552,0.448,1,1,1l1,8c-0.552,0-1,0.448-1,1v0
	c0,1.657,1.343,3,3,3h10c1.657,0,3-1.343,3-3v0c0-0.552-0.448-1-1-1l1-8c0.552,0,1-0.448,1-1v-3c0-0.552-0.448-1-1-1h-6.167
	l-0.606-3.633C18.107,9.159,19.411,10,21.001,10z M21.001,5c1.695,0,3.056,1.247,3.722,1.998C24.054,7.75,22.687,9,21.001,9
	c-1.695,0-3.056-1.247-3.722-1.998C17.948,6.25,19.315,5,21.001,5z M11,9C9.305,9,7.944,7.753,7.278,7.002C7.947,6.25,9.314,5,11,5
	c1.695,0,3.056,1.247,3.722,1.998C14.053,7.75,12.686,9,11,9z M21,28H11c-1.105,0-2-0.895-2-2h14C23,27.105,22.105,28,21,28z
	 M21.992,25H10.008l-1-8h13.984L21.992,25z M24,13v3H8v-3H24z M15.18,12L16,7.083L16.82,12H15.18z"/>
</svg>