<?xml version="1.0" encoding="iso-8859-1"?>
<!-- Uploaded to: SVG Repo, www.svgrepo.com, Generator: SVG Repo Mixer Tools -->
<svg fill="#000000" version="1.1" id="Capa_1" xmlns="http://www.w3.org/2000/svg" xmlns:xlink="http://www.w3.org/1999/xlink" 
	 viewBox="0 0 60 60" xml:space="preserve">
<g>
	<g>
		<path d="M22,22v2h12c0.6,0,1-0.4,1-1v-5c0-0.6-0.4-1-1-1H7c-3.9,0-7,3.1-7,7v14h2V24c0-2.8,2.2-5,5-5h1.3l2.8,7.4
			c0.1,0.3,0.5,0.6,0.9,0.6s0.8-0.3,1.1-0.6l2.8-7.4H33v3H22z M12.1,23.2L10.5,19h3.2L12.1,23.2z"/>
		<path d="M17,58h-4V39h-2v19H7V25H5v34c0,0.6,0.4,1,1,1h6h6c0.6,0,1-0.4,1-1V25h-2V58z"/>
		<rect x="11" y="29" width="2" height="2"/>
		<rect x="11" y="33" width="2" height="2"/>
		<path d="M11,16h2c2.8,0,5-2.2,5-5V8c0-2.8-2.2-5-5-5h-2C8.2,3,6,5.2,6,8v3C6,13.8,8.2,16,11,16z M8,8c0-1.7,1.3-3,3-3h2
			c1.7,0,3,1.3,3,3v3c0,1.7-1.3,3-3,3h-2c-1.7,0-3-1.3-3-3V8z"/>
		<path d="M30,14h22c0.6,0,1-0.4,1-1V1c0-0.6-0.4-1-1-1H30c-0.6,0-1,0.4-1,1v12C29,13.6,29.4,14,30,14z M31,2h20v10H31V2z"/>
		<path d="M38,37H24c-0.6,0-1,0.4-1,1v8c0,0.6,0.4,1,1,1h6v3h-6c-0.6,0-1,0.4-1,1v8c0,0.6,0.4,1,1,1h14c0.6,0,1-0.4,1-1v-8
			c0-0.6-0.4-1-1-1h-6v-3h6c0.6,0,1-0.4,1-1v-8C39,37.4,38.6,37,38,37z M37,58H25v-6h12V58z M37,45H25v-6h12V45z"/>
		<path d="M59,47c0.6,0,1-0.4,1-1v-8c0-0.6-0.4-1-1-1H45c-0.6,0-1,0.4-1,1v8c0,0.6,0.4,1,1,1h6v3h-6c-0.6,0-1,0.4-1,1v8
			c0,0.6,0.4,1,1,1h14c0.6,0,1-0.4,1-1v-8c0-0.6-0.4-1-1-1h-6v-3H59z M58,58H46v-6h12V58z M46,39h12v6H46V39z"/>
		<path d="M53,35v-3c0-0.6-0.4-1-1-1H42V16h-2v15h-9c-0.6,0-1,0.4-1,1v3h2v-2h19v2H53z"/>
		<rect x="33" y="4" width="12" height="2"/>
		<rect x="33" y="8" width="16" height="2"/>
		<rect x="28" y="41" width="2" height="2"/>
		<rect x="32" y="41" width="2" height="2"/>
		<rect x="28" y="54" width="2" height="2"/>
		<rect x="32" y="54" width="2" height="2"/>
		<rect x="49" y="54" width="2" height="2"/>
		<rect x="53" y="54" width="2" height="2"/>
		<rect x="49" y="41" width="2" height="2"/>
		<rect x="53" y="41" width="2" height="2"/>
	</g>
</g>
</svg>