<?xml version="1.0" encoding="iso-8859-1"?>
<!-- Uploaded to: SVG Repo, www.svgrepo.com, Generator: SVG Repo Mixer Tools -->
<svg fill="#000000" height="800px" width="800px" version="1.1" id="Layer_1" xmlns="http://www.w3.org/2000/svg" xmlns:xlink="http://www.w3.org/1999/xlink" 
	 viewBox="0 0 512 512" xml:space="preserve">
<g>
	<g>
		<path d="M504.017,321.468c4.41,0,7.983-3.573,7.983-7.983v-22.99c0-22.011-17.906-39.917-39.917-39.917h-23.95v-63.335
			c0-30.814-25.07-55.884-55.884-55.884h-63.867c-13.206,0-23.95,10.745-23.95,23.95v150.62h-60.674v-26.646l11.428-2.836
			c2.391-0.594,4.374-2.258,5.373-4.509l39.735-89.506c1.027-2.312,0.897-4.973-0.35-7.174l-35.26-62.238
			c-0.843-1.488-2.143-2.666-3.706-3.36l-13.445-5.968c-4.028-1.789-8.747,0.027-10.535,4.058
			c-1.789,4.029,0.027,8.747,4.058,10.535l6.148,2.729l-68.673,154.689l-76.859-34.12l68.671-154.689l36.645,16.268
			c4.032,1.792,8.748-0.027,10.535-4.058c1.789-4.029-0.027-8.747-4.058-10.535l-43.94-19.507c-0.895-0.398-1.856-0.627-2.835-0.677
			L48.234,62.381c-3.304-0.179-6.361,1.714-7.7,4.734L0.799,156.621c-1.321,2.975-0.704,6.454,1.56,8.792l25.316,26.15V305.93H7.983
			c-4.41,0-7.983,3.573-7.983,7.983v59.609c0,4.41,3.573,7.983,7.983,7.983h22.224c-0.257,2.273-0.402,4.579-0.402,6.919
			c0,33.749,27.456,61.206,61.206,61.206c33.749,0,61.206-27.456,61.206-61.206c0-2.34-0.145-4.646-0.402-6.919h10.384
			c-0.257,2.273-0.402,4.579-0.402,6.919c0,33.749,27.456,61.206,61.206,61.206c33.749,0,61.206-27.456,61.206-61.206
			c0-2.34-0.145-4.646-0.402-6.919h80.637c-0.257,2.273-0.402,4.579-0.402,6.919c0,33.749,27.456,61.206,61.206,61.206
			c33.749,0,61.206-27.456,61.206-61.206c0-2.34-0.145-4.646-0.402-6.919h17.968c4.41,0,7.983-3.573,7.983-7.983v-25.979
			c0-4.41-3.573-7.983-7.983-7.983c-4.41,0-7.983,3.573-7.983,7.983v17.996h-14.036c-9.083-22.442-31.09-38.32-56.75-38.32
			c-25.66,0-47.667,15.878-56.75,38.32h-88.745c-9.083-22.442-31.09-38.32-56.75-38.32s-47.667,15.878-56.75,38.32H147.76
			c-9.083-22.442-31.09-38.32-56.75-38.32s-47.667,15.878-56.75,38.32H15.967v-43.642h296.449c4.41,0,7.983-3.573,7.983-7.983
			V155.31c0-4.403,3.581-7.983,7.983-7.983h63.867c22.011,0,39.917,17.906,39.917,39.917v71.318c0,4.41,3.573,7.983,7.983,7.983
			h31.933c13.206,0,23.95,10.745,23.95,23.95v22.99C496.033,317.895,499.607,321.468,504.017,321.468z M425.247,343.186
			c24.945,0,45.239,20.294,45.239,45.239s-20.294,45.239-45.239,45.239c-24.945,0-45.239-20.294-45.239-45.239
			S400.302,343.186,425.247,343.186z M223.002,343.186c24.945,0,45.239,20.294,45.239,45.239s-20.294,45.239-45.239,45.239
			s-45.239-20.294-45.239-45.239S198.057,343.186,223.002,343.186z M91.01,343.186c24.945,0,45.239,20.294,45.239,45.239
			s-20.294,45.239-45.239,45.239c-24.945,0-45.239-20.295-45.239-45.239S66.065,343.186,91.01,343.186z M258.604,134.679
			l25.467,44.952l-36.519,82.262l-51.046,12.666L258.604,134.679z M17.578,158.178l35.324-79.573l101.373,5.136L88.642,231.585
			L17.578,158.178z M53.222,305.931h-9.58v-97.873l9.58,9.896V305.931z M202.245,305.931H69.189v-71.484l16.21,16.746
			c0.713,0.736,1.56,1.327,2.497,1.744l91.451,40.599c1.613,0.717,3.449,0.877,5.163,0.452l17.735-4.401V305.931z M227.792,305.931
			h-9.58v-20.306l9.58-2.377V305.931z"/>
	</g>
</g>
<g>
	<g>
		<path d="M392.25,156.908h-54.287c-4.41,0-7.983,3.573-7.983,7.983v93.672c0,4.41,3.573,7.983,7.983,7.983h76.64
			c4.41,0,7.983-3.574,7.983-7.983v-71.318C422.586,170.517,408.977,156.908,392.25,156.908z M406.62,250.579h-60.674v-77.705
			h46.304c7.924,0,14.37,6.446,14.37,14.37V250.579z"/>
	</g>
</g>
<g>
	<g>
		<path d="M363.509,273.997h-25.547c-4.41,0-7.983,3.573-7.983,7.983c0,4.41,3.573,7.983,7.983,7.983h25.547
			c4.41,0,7.983-3.573,7.983-7.983C371.493,277.57,367.919,273.997,363.509,273.997z"/>
	</g>
</g>
<g>
	<g>
		<path d="M425.247,352.766c-19.662,0-35.659,15.997-35.659,35.659s15.997,35.659,35.659,35.659
			c19.663,0,35.659-15.997,35.659-35.659S444.91,352.766,425.247,352.766z M425.247,408.118c-10.858,0-19.692-8.834-19.692-19.692
			c0-10.858,8.834-19.692,19.692-19.692c10.858,0,19.692,8.834,19.692,19.692C444.94,399.284,436.106,408.118,425.247,408.118z"/>
	</g>
</g>
<g>
	<g>
		<path d="M223.002,352.766c-19.662,0-35.659,15.997-35.659,35.659s15.997,35.659,35.659,35.659
			c19.663,0,35.659-15.997,35.659-35.659S242.665,352.766,223.002,352.766z M223.002,408.118c-10.858,0-19.692-8.834-19.692-19.692
			c0-10.858,8.834-19.692,19.692-19.692s19.692,8.834,19.692,19.692C242.694,399.284,233.861,408.118,223.002,408.118z"/>
	</g>
</g>
<g>
	<g>
		<path d="M91.01,352.766c-19.662,0-35.659,15.997-35.659,35.659s15.997,35.659,35.659,35.659c19.663,0,35.659-15.997,35.659-35.659
			S110.673,352.766,91.01,352.766z M91.01,408.118c-10.858,0-19.692-8.834-19.692-19.692c0-10.858,8.834-19.692,19.692-19.692
			c10.858,0,19.692,8.834,19.692,19.692C110.703,399.284,101.869,408.118,91.01,408.118z"/>
	</g>
</g>
</svg>